/* XPM */
static char *_e495aaf277d450aa3bea5f840b7aef1i1p9ju7Y2bmcOWC7[] = {
/* columns rows colors chars-per-pixel */
"64 64 6 1 ",
"  c black",
". c #005E02",
"X c #00FF08",
"o c #809100",
"O c #E1FF00",
"+ c white",
/* pixels */
"XXXXXXXXXXXXXXXXXXXXXXXXXXXXX       XXXXXX.XXXXXXXXXXXXXXXXXXXXX",
"XXXXXXXXXXXXXXX.XXXXXXXXXX   +++++++   XXXXXXXXXXX.XXXXXXXXXXXXX",
"XXXXXXXXXXXXXXXXXXXXXXXX  ++++++++++OOO  XXXXXXX.XXXXXXXXXXXXXXX",
"XXXXXXXX.XXXXXXXXXXXXX  +++++OOOOOOOOOOOO  XXXXXXXXXXXXXXXXXXXXX",
"XXXXXXXXXXXXXXXXXXX.X ++++OOOOOOOOOOOOOOOOO XXXXXXXXXXXXXXXXXXXX",
"XXXXXXXXXXXXXXXXXXXX +++OOOOOOOOOOOOOOOOOOOO XXXXXXXXX.XXXXX.XXX",
"XXXXXXXXXXXXXXXXXXX +++OOOOOOOOOOOOOOOOOOOOOO XXXXXXXXXXXXXXXXXX",
"XXXXX.XXX.XXXXXXXX +++OOOOOOOOOOOOOOOOOOOOOOOO XXXX.XXX.XXXXXXXX",
"XXX.XXXXXXXXXXXXX +++OOOOOOOOOOOOOOOOOOOOOOOOOO XXXXXXX.XXXXXXXX",
"XXXXXXXXXXXXXXXXX ++OOOOOOOOOOOOOOOOOOOOOOOOOOO XX..XXXXXXX.XXXX",
"XXXXXXXXXXXXXXXX ++OOOOOOOOOOOOOOOOOOOOOOOOOOOOO XXXXXXX.XXXXXXX",
"XXX..XXXXXXXXXX +++OOOOOOOOOOOOOOOOOOOOOOOOOOOOOO XXXXXXXXXXXXXX",
"XXXXXXXXXX.XXXX ++OOOOOOOOOOOOOOOOOOOOOOOOOOOOOOO XXXXXXXXXXXXXX",
"XXXXXXXXXXXXXX ++OOOOOOOOOooooooooooooooOOOOOOOOOO XXXXXXXXXXXXX",
"XXXXXXXXXXXXXX ++OOOOOOOOO++OOOOOOOOOO  OOOOOOOOOO XXXXXXXXXXXXX",
"XX.XXXXXXXXXX ++OOOOOOOOOO++OOOOOOOOOO  OOOOOOOOOOO XXXXXXXXXXXX",
"XXXXXXXXXXXXX ++OOOOOOOOOO++OOOOOOOOOO  OOOOOOOOOOO XXX.XXXXXXXX",
"X.XXXXXXXXXX ++OOOOOOOOOOO++OOOOOOOOOO  OOOOOOOOOOOO XXXXXXXXXXX",
"XXXXXXXXXXXX ++OOOOOOOOOOO++OOOOOOOOOO  OOOOOOOOOOOO XXXXXXXX.XX",
"XXXXXXXXXXXX ++OOOOOOOOOOO++OOOOOOOOOO  OOOOOOOOOOOO XXXXXXXXXXX",
"XXXXX.XXXXX +++OOOOOOOOOOO++OOOOOOOOOO  OOOOOOOOOOOOO XXXXXXXXXX",
"XXXXXXX.XXX ++OOOOOOOOOOOO++OOOOOOOOOO  OOOOOOOOOOOOO XXXXXXXXXX",
"XXXXXXXXXXX ++OOOOOOOOOOOO++OOOOOOOOOO  OOOOOOOOOOOOO XXXXXXXXXX",
"XXXXXXXXXXX ++OOOOOOOOOOOO++OOOOOOOOOO  OOOOOOOOOOOOO XXXXXXXXXX",
"XXXXXXXXXXX ++OOOOOOOOOOOO++OOOOOOOOOO  OOOOOOOOOOOOO XXXXXXXXXX",
"XXXXXXXXXX  ++OOOOOOOOOOOO++OOOOOOOOOO  OOOOOOOOOOOOOO XXXXXXXXX",
"XXXXX.XXXX  +OOOOOOOOOOOOO++OOOOOOOOOO  OOOOOOOOOOOOOO XXXXXXXXX",
"XXXXXXXXXX  +OOOOOOOOOOOOO++OOOOOOOOOO  OOOOOOOOOOOOOO XXXXXXXXX",
"XXXXXXXXXX  +OOOOOOOOOOOOO++OOOOOOOOOO  OOOOOOOOOOOOOO XXXXXXXXX",
"XXXXXXXXXX  +OOOOOOOOOOOOO++OOOOOOOOOO  OOOOOOOOOOOOOO XXXX.X.XX",
"XXX.XXXXXX  +OOOOOOOOOOOOO++OOOOOOOOOO  OOOOOOOOOOOOOO XXXXXXXXX",
"XXXXXXXXXX  +OOOOOOOOOOOOO++OOOOOOOOOO  OOOOOOOOOOOOOO XXXXXXXXX",
"XXXXXXXXXX  +OOOOOOOOOOOOO++OOOOOOOOOO  OOOOOOOOOOOOOO XXXXXXXXX",
"XXXXXXXXXX  +OOOOOOOOOOOOO++OOOOOOOOOO  OOOOOOOOOOOOOO XXXXXXXXX",
"XXXXXXXXXX  +OOOOOOOOOOOOO++OOOOOOOOOO  OOOOOOOOOOOOOO XXXXXXXXX",
"XXXXXXXXXX  +OOOOOOOOOOOOO++OOOOOOOOOO  OOOOOOOOOOOOOO XXXXXXXXX",
"XXXXXXXXXX  +OOOOOOOOOOOOO++OOOOOOOOOO  OOOOOOOOOOOOOO XXXXXXXXX",
"XXXXXXXXXX  +OOOOOOOOOOOOO++OOOOOOOOOO  OOOOOOOOOOOOOO XXXXXXXXX",
"XXXXXXXXXXX ++OOOOOOOOOOOO++OOOOOOOOOO  OOOOOOOOOOOOO XXXXXXXXXX",
"XXXXXXXXXXX ++OOOOOOOOOOOO++OOOOOOOOOO  OOOOOOOOOOOOO XXX.XXXXXX",
"XXXXXXXXXXX ++OOOOOOOOOOOO++OOOOOOOOOO  OOOOOOOOOOOOO XXXXXXXXXX",
"XXXXXXXXXXX ++OOOOOOOOOOOO++OOOOOOOOOO  OOOOOOOOOOOOO XXXXXXXXXX",
"XXXXXXXXXXX ++OOOOOOOOOOOO++OOOOOOOOOO  OOOOOOOOOOOOO XXXXXXXXXX",
"X.XXXXXXXXXX ++OOOOOOOOOOO++OOOOOOOOOO  OOOOOOOOOOOO XXXXXXXXXXX",
"XXXXXXXXXXXX ++OOOOOOOOOOO++OOOOOOOOOO  OOOOOOOOOOOO XXXXXXXXXXX",
"XXXXXXXXXXXX ++OOOOOOOOOOO++OOOOOOOOOO  OOOOOOOOOOOO XXXXXXXXX.X",
"XXXXXXXXXXXXX ++OOOOOOOOOO              OOOOOOOOOOO XXXXXXXXXXXX",
"XXXXXXXXXXXXX ++OOOOOOOOOO              OOOOOOOOOOO XXXXXXXXXXXX",
"XXXXXXXXXXXXXX ++OOOOOOOOOOOOOOOOOOOOOOOOOOOOOOOOO XXXXXXXXXXXXX",
"XXX.XXXXXXXXXX ++OOOOOOOOOOOOOOOOOOOOOOOOOOOOOOOOO XXXXXXX.XXXXX",
"XXXXXXXXXXXX.XX ++OOOOOOOOOOOOOOOOOOOOOOOOOOOOOOO XXXXXXXXXXXXXX",
"XXXXXXXXXXXXXXX +++OOOOOOOOOOOOOOOOOOOOOOOOOOOOOO XXXXXXXXXX.XXX",
"XXXXXXXXXXXXXXXX ++OOOOOOOOOOOOOOOOOOOOOOOOOOOOO XXXXXXXXX..XXXX",
"XXXXXXXXXXXXXXXXX ++OOOOOOOOOOOOOOOOOOOOOOOOOOO XXXXXXXXXXXXXXXX",
"XXXXXXXXXXXXXXXXX +++OOOOOOOOOOOOOOOOOOOOOOOOOO XXXXXXXXXXX.XXXX",
"XXXXXXXXXXXXXXXXXX +++OOOOOOOOOOOOOOOOOOOOOOOO XXXXXXX.XXXXXXXXX",
"XXXXXXXXXXXXXXXXXXX +++OOOOOOOOOOOOOOOOOOOOOO XXXXXXXXXXXXXXXXXX",
"XXXXXXXXXXXXXXXXXXXX ++++OOOOOOOOOOOOOOOOOOO XXXXXXXXXXXXXXXXXXX",
"XXXXXXXXXXXXXXXXXXXXX ++++OOOOOOOOOOOOOOOOO XXXXXXXXXXXXXXXXXXXX",
"XXXXXXX.XXXXXXXXXXXXXX  +++++OOOOOOOOOOOO  XXXXXXXXXXXXXXXXXXXXX",
"XX.XXXXXXXX.XXXXXXXXXXXX  +++OOOOOOOOOO  XXXXXXXXXXXXXXXXXXXXXXX",
"XXXXX.XXXXXXXXXXXXXXXXXXXX   OOOOOOO   XXXXXXXXXXXXXXXXXXXXXXXXX",
"XXXXXXXXXXXXXXXXXXXXXXXXXXXXX       XXXXXXXX.XXXXXXXXXXXXXXXXXXX",
"XXXXXXXXXXXXXXXXXXXXXXXXX.XXXXXXXXXXXXXXXXXXXXXXXXXXXXXXXXXXXXXX"
};
