/* XPM */
static char *ddad680fa0794da892d4dab12fcd0668supRI2RxIjcObOrN[] = {
/* columns rows colors chars-per-pixel */
"64 64 6 1 ",
"  c black",
". c #523C07",
"X c #027504",
"o c #8F6400",
"O c #00FF08",
"+ c #FFF200",
/* pixels */
"OOOOOXOOOOOOOOOOOOOOOOOOXOOOOOOOOOOOOOOOOOOOOOOOOOOOOOOOOOOOOOOO",
"OOOOOOOOOOOOOOOOOOOOOOOOOOOOOOOOOOOOOOOOOOOOOOOOOOOOOOOOOOOOOOOO",
"OOOOOOOOOOOOOOOOOOOOOOOOOOOOOOOOOOOOOOOXOOOOOOOOOOOOOOOOOOOOOOOO",
"OOOOOOOOOOOOOOOOOOOOOOOOOOOOOOOOOOOOOOOOOOOOOXOOOOOOOOOOOOOOOOOO",
"OOOOOOOOOOOOOOOOOOOOOOOOOOOOO         OOOOOOOOOOOOOOOOOOOOOOOOOO",
"OOOOOOOOOOOOOOOOOOOOOOOOO    .........    OOOOOOOOOOOOOOOOOOOOOO",
"OOOOOOOOOOOOOOOOOOOOOOO  .................  OOOOOOOOOOOOOOOOOOOO",
"OOOOOOOOOOOOOOOOOOOOO  .....................  OOOOOOOOOOOOOOOXOO",
"OXOOOOOOOOOOOOOOOOO  .........................  OOOOOOOOOOOOOOOO",
"OOOOOOOOOOOOOOOOOO ............................. OOOOOOOOOOOXOOO",
"OOOOOXOOOOOOOOOOO ..............o..o............. OOOOOOOOOOOOOO",
"OOOOOOOOOOOOOOOX ..............oo..oo............. OOOOOOOOOOOOO",
"OOOOOOOOOOOOOOO ..............o.o..o.o............. OOOOOOOOOOOO",
"OOOOOOOOOOOOOO ..............o..o..o..o............. OOOXOOOOOOO",
"OOOOOOOOOOOOO .............oo...o..o...o............. OOOOOOOOOO",
"OOOOOOOOOOOO .............o.....o..o....o............. OOOOOOOOO",
"OOOOOOOOOXO .............o......o..o.....o............. OOOOOOOO",
"OOOOOOOOOOX ............o.......o..o......o............ OOOOOOOO",
"OOOOOOOXOO ............o........o..o.......o............ OOOOOOO",
"OOOOOOOOOO ...........o.........o..o........oo.......... OOOOOOO",
"OOOOOOOOO ...........o..........o..o..........o.......... OOOOOO",
"OOOOOOOOO ..........o......+....o..o...+.......o......... OOOOOO",
"OOOOOOOO ..........o......+.+...o..o..+.+.......o......... OXOOO",
"OOOOOOOO ........oo.......+.+...o..o..+.+........o........ OOOOO",
"OOOOOOOO .......o.........+.+...o..o..+.+.........o....... OOOOO",
"OOOOOOOO ......o...........+....o..o...+...........o...... OOOOO",
"OOOOOOO ......o.................o..o................o...... OOOO",
"OOOOOOO .....o..................o..o.................o..... OOOO",
"OOOOOOO ....o...................o..o..................o.... OOOO",
"OOOOOOO ....ooooooooooooooooooooo..oooooooooooooooooooo.... OOOO",
"OOOOOOO ................................................... OOOO",
"OOOOOOO ................................................... OOOO",
"OXOOOOO ................................................... OXOO",
"OOOOOOO ................................................... OOOO",
"OOOOXOO ................................................... OOOO",
"OOOOOOO ................................................... OOOO",
"OOOOOOO                                                     OOOO",
"OOOOOOOOOOOOOOOOOOOOOOOOOOOOOOOOOOOOOOOOOOOOXOOOOOOOOOOOOOOOOOOO",
"OOOOOOOOOOOOOOOOOOOOOOOOOOOOOOOOOOOOOOOOOOOOOOOOOOOOOOOOOOOOOOOO",
"OOOOOOOOOOOOOOOOOOOOOOOOOOOOOOOOOOOOOOOOOOOOOOOOOOOOOOOOOOOOOOOO",
"OOOOOOOOOOOOOOOOOOOOOOOOOOOOOOOOOOOOOOOOOOOOOOOOOOOOOOOOOOOOOOOO",
"OOOOOOOOOOOOOOOOOOOOOOOOOOOOOOOOOOOOOOOOOOOOOOOOOOOOOOOOOOOOOOOO",
"OOOOOOOOOOOOOOOOOOOOOOOOOOOOOOOOOOOOOOOOOOOOOOOOOOOOOOOOOOOOOOOO",
"OOOOOOOOOOOOOOOOOOOOOOOOOOOOOOOOOOOOOOOOOOOOOOOOOOOOOOOOOOOOOOOO",
"OOOOOOOOOOOOOOOOOOOOOOOOOOOOOOOOXOOOOOOOOOOOOOOOOOOOOOOOOOOOOOOO",
"OOOOOOOOOOOOOOOOOOOOOOOOOOOOOOOOOOOOOOOOOOOOOOOOOOOOOOOOOOOOOOOO",
"OOOOOOOOOOOOOOOOOOOOOOOOOOOOOOOOOOOOOOOOOOOOOOOOOOOOOOOOOOOOOOOO",
"OOOOOOOOOOOOOOOOOOOOOOOOOOOOOOOOOOOOOOOOOOOOOOOOOOOOOOOOOOOOOOOO",
"OOXOOOOOOOOOOOOOOOOOOOOOOOOOOOOOOOOOOOOOOOOOOOOOOOOOOOOOOOOOOOOO",
"OOOOOOOOOOOOOOOOOOOOOOOOOOOOOOOOOOOOOOOOOOOOOOOOOOOOOOOOOOOOOOOO",
"OOOOOOOOOOOOOOOOOOOOOOOOOOOOOOOOOOOOOOOOOOOOOOOOOOOOOOOOOOOOOOOO",
"OOOOOOOOOOOOOOOOOOOOOOOOOOOOOOOOOOOOOOOOOOOOOOOOOOOOOOOOOOOOOOOO",
"XOOOOOOOOOOOOOOOOOOOOOOOOOOOOOOOOOOOOOOOOOOOOOOOOOOOOOOOOOOOOOOO",
"OOOOOOOOOOOOOOOOOOOOOOOOOOOOOOOOOOOOOOOOOOOOOOOOOOOOOOOOOOOOOOOO",
"OOOOOOOOOOOOOOOOOOOOOOOOOOOOOOOOOOOOOOOOOOOOOOOOOOOOOOOOOOOOOOOO",
"OOOOOOOOXOOXOXOOOOOOOOOOOOOOOOOOOOOOOOOOOOOOOOOOOOOOOOOOOOOOOOOO",
"OOOOOOOOOOOOOOXOOOOOOOOOOOOOOOOOOOOOOOOOOOOOOOOOOOOOOOXOOOOOOOOO",
"OXOOOOOOOXOOOOOOOOOOOOOOOOOOOOOOOOOOOOOOOOOOOOOOOOOOOOOOOOOXOOOO",
"OOXOXOOOOOOOOOOOOOOOOOOOOOOOOOOOOOOOOOOOOOOOOOOOOOOOOOOOOOOOOOOO",
"OOOOOOOOOOOOOOOOOOOOOOOOOOOOOOOOOOOOOOOOOOOOOOOOOOOOOOOOOOXOOOOO",
"OOOXOOOOOXOOOOOOOOOOOOOOOOOOOOOOOOOOOOOOOOOOOOOOOOOOOOOOOOOOOOOO",
"OOOOOOOOOOOOOOOOOOOOOOOOOOOOOOOOOOOOOOOOOOOOOOOOOOOOOOOOOOOOOOOO",
"OOOOOOOOOOOOOOOOOOOOOOOOOOOOOOOOOOOOOOOOOOOOOOOOOOOOOOOOOOOOOOXO",
"OOOOOOOOOOOOOOOOOOOOOOOOOOOOOOOXOOOOXOOXOOOOOOOOOOOOOOOOOOOOOOOO"
};
