/* XPM */
static char *db043f0ded1e4147e3d62976037ba3cc8u85d4z8N2R7ETeH[] = {
/* columns rows colors chars-per-pixel */
"64 64 19 1 ",
"  c black",
". c #110908",
"X c #20110F",
"o c #003469",
"O c #AD3713",
"+ c #C40007",
"@ c #FA0008",
"# c #198A22",
"$ c #29FF3E",
"% c #E8962A",
"& c #FF8875",
"* c #F2FC7C",
"= c #325A80",
"- c #007DB8",
"; c #6ECCB1",
": c #00AEFF",
"> c #FCDED9",
", c #FBFFC7",
"< c white",
/* pixels */
"$$$$$$$$$$$$$$$$#$$$$$$$$$$$        $$$$$$$$$$$$$$$$$$$$$$$$$$$$",
"$$$$$$$$$$$$$#$$$$$$$$$$$#$$        #$##$$$$#$$#$$$$$$$$$$$$$$$$",
"$$$$#$$$$$$$$$$$$$$$$$$$    @@@@@@@@    #$$$$#$$$$$$$$$$$$$$$$$$",
"$##$$$$$$$$$$$$$$$$$$$$$    @@@@@@@@    $$$$$$#$$$$$$$$$$$$$$$$$",
"$$$$$#$$$$$$$$$$$$$$$$  @@@@++<<<<++@@@@  $$#$$$$$$$$$$$$$$$$#$$",
"$$$$$$$$$$$#$$$$$$$$$$  @@@@++<<<<++@@@@  $$$$$$$$#$#$$$$$$$$$$$",
"$$$$#$#$$$$#$$$$$$$$$$  @@++<<<<<<<<++@@  $$$$$$##$$$$$$$$$$$$$#",
"$$$$$$$$$$$$$$$$$$$$$$  @@++<<<<<<<<++@@  #$$$$$$$$$$$$#$$$$$$$$",
"$$$$$$$$$$$$$$$$$$#$  @@++@@@@@@@@@@@@++@@  $$$$$$$$$$$$$$$$$$$$",
"$$$$$$$$$$$$$$$#$$$$  @@++@@@@@@@@@@@@++@@  $$$$$$$$$$$$$$$$$#$$",
"$$$$$$$$$$$$$$$$$$  ++++@@            @@++++  #$$$$$#$$$$$$$$$$$",
"#$$$$$$$$$$$$$$$$$  ++++@@            @@++++  $$$$$$$#$$$$$$$$$$",
"$#$$$$$$$$$$$$$$#$  ++++  <<<<&&&&<<<<  ++++  $$$$$$$$$$$$#$$$$$",
"$$$$$$$$$$$$$$$$$$  ++++  <<<<&&&&<<<<  ++++  $$$$$$#$$$$$$$$$##",
"$$$$$$$$$$$$$$$$#$  ++  &&<<  &&&&  <<&&  ++  $$$$$$$$$$$#$##$$$",
"$$$$$$$$$$$$$$$$$$  ++  &&<<  &&&&  <<&&  ++  $$$$$$$$$$$$$$$$#$",
"$$$$$$$$$$$$$$$#$$$$    OO<<  >>>>  <<OO    $#$$$$$$$$$$$#$$$$$$",
"$$$$#$$$$$$#$$$$$$$$    OO<<  >>>>  <<OO    $$$$$$$$$$#$$$$$$$$$",
"$$$$$$$$$$$$$$$$$$  >>OO>>>>>>>>>>>>>>>>OO>>  $$$#$$$$$$$$$$$$$$",
"$$$$$#$$$$#$#$$$$# .>>OO>>>>>>>>>>>>>>>>OO>>  $$$#$$$$$$$$$$$$$$",
"$$$$$$$$$$$$$$$$$$ X&&>>  OO&&>>>>&&OO  >>&&  ##$$$$$$$$$$$$$$$$",
"$#$$$$$$$$$$$$$#$$ .&&>>  OO&&>>>>&&OO  >>&&  $#$$$#$$$$$#$$$$$$",
"$#$$$$$$$$$$$#$#$$$$  >>      OOOO      >>  $$$$$$$$$$$$$$$#$$$$",
"$$$$$$$$$$$$$$$$$$$$  >>      OOOO      >>  $$$$$$$$$$$$$$$$$$$$",
"$$$$$$$$$$$$$$$$$$$$    &&  OO    OO  &&    $$$$$$$$$$$$$$$$$$$$",
"$$#$$$$$$$$$$$$$$$##    &&  OO    OO  &&    $$$$$$$$$$$$$$$$$$$$",
"$$$$$#$$$$$#$$$$$$$$$$$$  &&>>>>>>>>&&  $$$$$$$$$$#$$$$$$$$$$#$$",
"$$$#$$$$$$$$$$$$$$$$$$#$  &&>>>>>>>>&&  $$$$$$$$$$#$$$$$$$$$$$$$",
"$$$$#$$$$$$$$$$$$#$$$#    ++  OOOO  ++    $$$$#$$$$$$$$$$$$$$$$$",
"$$#$#$$$$$$$$#$$$$$#$$    ++  OOOO  ++    $$$$$$$$$$$$$$$$$$$$$$",
"$$$$$$$$$$$$$$$$$#$$    ++----++++----++    $$$$$$$$$$$$$$$$$$$$",
"$$$$$$$$$$$$$$$$$$$$    ++----++++----++    $$$$$$$$$$$$$$$$#$$#",
"##$$$$$$$$$$$$$$#$  ++@@++--++++++++--++@@++  $$$$$$$#$$$$$$$$$$",
"$$$$$$$$$$$$$#$$$$  ++@@++--++++++++--++@@++  $$$$$$$$$$$$$#$$$$",
"$$#$$$$$$$$$$$$$  ++@@++oo::@@@@@@@@::oo++@@++  $$$$$$$$$$$$$$$#",
"$$$$$$$$$$#$$$$$  ++@@++oo::@@@@@@@@::oo++@@++  $$$$$#$$$$$$$#$#",
"$$$$$$$$$$$$$#$$  ;;<<  **,,::::::::**,,  <<;;  $$$$$$$$$$$$$$$$",
"$$$$$##$#$$$#$$$  ;;<<  **,,::::::::**,,  <<;;  $$#$$$$$$$$$$$$#",
"$$$$$$$$$$$$$$$$  <<<<--****::::::::****--<<<<  $$$$#$$$$$$$$$$$",
"$$$$$$$#$$$$$$#$  <<<<--****::::::::****--<<<<  $$$$$$$$$$$$$$$$",
"$$#$$$$$$$$$$$$$  <<;;oo--::::::::::::--oo;;<<  $$$$$$$$$$#$$$$$",
"$$$$$$$$$$$$$$$$  <<;;oo--::::::::::::--oo;;<<  $$$$$$$$$$#$$$$$",
"$$$$$$$$$$$$$$$$    <<oooo::::::::::::oooo<<    $$$$$$$#$$$$$$$$",
"$$$$$$$$$$$$$$$$    <<oooo::::::::::::oooo<<    $#$$$$$$$$$#$$$$",
"$$$$$$$$##$$$$$$$$      oo--::::::::--oo      $$$$$$$$$$$#$$$$$$",
"$$$$$$$$$$#$$$$$$$      oo--::::::::--oo      $#$$$$$$$$$$$$$$$$",
"$$$$$$$$$$$$$$$$$#$$$$    ::oooooooo::    $$$$$$$$$#$$$#$$$$$#$$",
"$$$$$$$$$$$$#$$$$$$#$#    ::oooooooo::    $$$$##$$$$$$$#$$$$$$$$",
"$$$$$$$$$$$$$$$$$$$$$$  ==::--oooo--::==  $$$$$$$$$$$$$$$$$$$$#$",
"$$$$$$#$$$$$$$$$$$$$$$  ==::--oooo--::==  $$$$#$$$$$$$$$$$$$$$$$",
"$$$$$$$$$$$$$$$$$$$$$$  OOOO--    --OOOO  $$$$$$$$$#$$$$$$$$$$#$",
"$$$$$$$$$$#$$$$$$$$#$$  OOOO--    --OOOO  $$$$$$#$$$$$$$$$$$$#$$",
"$$$$$$$$$$$$$$$$$$$$  %%**%%OO    OO%%**%%  $$$$$$$$$$$$$$$$$$$$",
"$$$$$$$$$$$$$$$$$$$$  %%**%%OO    OO%%**%%  $$$$$$$$$$$$$$#$$$#$",
"$$#$$$$$$$$$#$$$$$$$  OOOOOOOO    OOOOOOOO  $$$$$$$$$$$$$#$$$$$$",
"$$$$$$$$$$$$$$$$$$$$  OOOOOOOO    OOOOOOOO  $$$$$$$$$$$$$$$$$$$$",
"$$$$$$$$$$$$$$$#$#$$          $$$#          $$$$$$$$$$$$$$$$$$$$",
"$$$$$$$$$#$$$$$$$$$$          $$$$          $$$$$$$$$$$$$$$$$$$$",
"$$$$$$$$$$$$$$$$$$$$$$$$$#$$$$$$$$$$$$$$$$$$$$$$$$$$$$$#$$$$$$$$",
"#$$$$$$$$$$$#$$$$$$$$$$$$$$$$$$$$#$#$$$$$$$$$$$$$$$$$$$#$$$$$$$#",
"#$$$$$$$$$$$#$$$$$#$$$$$$$$$$$$$$$$$$$$$$$$$$$$$$$$$$$$$$#$#$$$$",
"$$$$$$$$$$$$$$#$$$$$$$$$$$$$$##$$$$$$$$$$$$$$$$#$$$$$$$$$$#$$$$$",
"#$$$$$$$$$$$$$$$$$$$$$$$$$$$$$$$$$$$#$$$$$$$$#$$$#$$$$$$$$$##$$$",
"$$$$$$$$$#$$$$$#$#$$$$$#$$$$$$$$$#$$$$##$$$#$$$#$$$#$$$#$$$$$$$#"
};
