/* XPM */
static char *_6ad8ae2c25b4dc5bc0baef23e302164rER3LdFLaZMCMK03[] = {
/* columns rows colors chars-per-pixel */
"64 64 15 1 ",
"  c black",
". c #106617",
"X c #003469",
"o c #AD3713",
"O c #C40007",
"+ c #FA0008",
"@ c #29FF3E",
"# c #E8962A",
"$ c #FF8875",
"% c #F2FC7C",
"& c #007DB8",
"* c #6ECCB1",
"= c #00AEFF",
"- c #FFB4AD",
"; c white",
/* pixels */
"@@@@@@@@@@@@.@@@@@@@@@@@@@@@@@@@@@@@@@@@@@@@@@@@@@@.@@@@@@@@@@@@",
"@@@@@@@@@@@@@@@@@@.@@@@@@@@@@@@@@@@@@@@.@@@@@@@@@@@@@@@@@@@@@@@@",
"@@@@@@@@@@@@@@@@@@@@@@@@@@@@@@@.@@@@@@@@@@@@@@@@@@.@@@@@@@@@@@@@",
"@@@@@@@@@@@@@@@@@@@@@@@@@@.@@@@@@.@@@.@@@@@@@@@@@@@@@@@@@@@@@@@@",
"@@@@@@@@.@@@@@@@@@@@.@@@@@        @@@@@@@@@@@@@@@@@@@.@@@@@@@@@@",
"@@@@@@@@@@@@@@@@@@@@@@@@@@        @@@@@@@@@@@@@.@@@@@@@@@@@@@@.@",
"@@@@@@@@@@@@@@@.@@@@@@@@  ++++++++  @@@@@@@@@@@@@@@.@@@@@@@@@@@@",
"@@@@@@@@@@@@@@@@@@@@@@@@  ++++++++  @@@@@@@@@@@@@@@@@@@@@@@@@@@@",
"@@@@@@@@@@@@@@@@@@@@@@  ++++OO;;;;OO  @.@@@@@@@@@@@@@@@@@@@@@@@@",
"@@@@@@@@@@@@@.@@@@@@@@  ++++OO;;;;OO  @@@@@@@@@@@@@@@@@@@@@@@@@@",
"@@@@.@@@@@@@@@@@@@@@  ++++OOOO;;;;;;OO    @@@@@@.@@@@@@@@@@@@@@@",
"@@@@@@@@@@@@@@@@@@@@  ++++OOOO;;;;;;OO    @@@@@@@@@@@@@@@@@@@@.@",
"@@@@@@@@@@@@@@@@    OO++OOOO++++++++++++++  @@@@@@@@@@@@@@@@@@@@",
"@@@@@@@@@@@@@@@@    OO++OOOO++++++++++++++  @@@@@@@@@@@@@@@@@@.@",
"@@@@@@.@@@@@@@  OO++++OO++++          OO++  .@@@@@@@@@@@@@@@@@@@",
"@@@@@@@.@@@@@@  OO++++OO++++          OO++  @@@@@@@@@@@@@@@@@@@@",
"@@@@@@@@@@@@@@  OOOOOO++++  ;;;;$$;;;;    @@@@@@@@@@@@@@@@@@@@@@",
"@@@@@@@@@@@@@@  OOOOOO++++  ;;;;$$;;;;    @@@@@@@@@@@@@@@@@@@@@@",
"@@@@@@@@@@@@@@  OOOOOO    ;;;;  $$  ;;  @@@@@.@@@@@@@@@@@@@@@@@@",
"@@@@@@@@@@@@@@  OOOOOO    ;;;;  $$  ;;  @@@@@@@@@@@@@@@@@@@@@@@@",
"@@@@@@@@@@@@@@@@      $$$$;;;;  $$----$$  @@.@@.@@@@@@@@@@@@@@@@",
"@@@@@@@@@@@@@@@@      $$$$;;;;  $$----$$  @@@@@@@@@@@@@@@@@@@@@@",
"@@@@@@@@@@@@@@  ----- oo--oo;;;;----;;--oo  @@@@@@.@@@@@@@@@@@@@",
"@@@@@@@@@@@@@@  ----- ----oo;;;;----;;--oo  @@@.@.@@@@@@@@@@@@@@",
"@@@@@@@@@@@@@@  $$$$$o----oo    oo----$$oo  @@@@@@@@@@@@@@@@@@@@",
"@@@@@@@.@@@@@.  $$$$$o----oo    oo----$$oo  @@@.@@@@@@@@@@@@@@@@",
"@@@@@@@@@@@@@@@@  $$$$----$$      oooo    @@@@@@@@@@@@@@@@.@@@@@",
"@@@@@@@@@@@@@@@@  $$$$----$$    oooooo    @@@@@@@@@@@@@@@@@@@@@@",
"@@@@@@@@@@@@@@@@    oo$$------  oo        @@@@@@@@@@@@@@@@@.@@@@",
"@@@@@@@@@@@@@@@@    oo$$------  oo        @@@@@@@@@@@@@@@@@@@@@@",
"@@@@@@@@@@@@@@@@@@      oo--------$$oo  @.@@@@@@@@.@@@@@@@@@@@@@",
"@@@@@@@@@@@@@@@@@@      oo--------$$oo  @@@@@@@@@@@@@@@@@@@@@@@@",
"@@@@@@@@@@@@@@@@  ++++OO    oooooo    @@@.@@@@@@@@@@@@@@@@@@@@@@",
"@@@@@..@@@@@@@@@  ++++OO    oooooo    @.@@@@@@@@@@@@@@@@@@@@.@@@",
"@@@@@@@@@@@@@@  OO++++++OO&&&&OOOO&&        @@@@@@@@@@@@@@@@@@@@",
"@@@@@@@@@@@@@@  OO++++++OO&&&&OOOO&&        @@@@@@@@@@@@@@@@@@@@",
"@@@@@@@@@@@@  ;;;;++++++OOOO&&&&OOOO&& ;;;;;  @@@@@@@@@@@@@@@@@@",
"@@@@@@@@@@@@  ;;;;+++OOOOOOO&&&&OOOO&& ;;;;;  @@@@@@@@.@@@@@@@@@",
"@@@@@@@@@@  ;;;;;;;;+OOOOOOO&&&&+OOOOO ;;;*;;;  @@@@.@@@@@@@@@@.",
"@@@@@@@@@@  ;;;;*;;;O  OOOOO&&&&++OOOO ;;;*;;;  @@@@@@.@@@@@@@@.",
"@@@@@@@@@@  ;;;;*;;;O  OOOOOXX==&&+OOO ****;;;  @@@@@@@@@@@@@@@@",
"@@@@@@@@@@  ;;;;**** OOOOOOOXX====++++ ***;;;;  @@@@@@@@@@@@@@@@",
".@@.@@@@@@@@  ;;;  XXXX&&&&&XX%%%%====&&  ;;  @@@@@@@@@@@@@@@@@@",
"@@@@@@@@@@@@  ;;;  XXXX&&&&&XX%%%%====&&  ;;  @@@@@@@@@@@@@@@@@@",
"@@@@@@@.@@@@@@     XX&&&&&&&&&%%%%====&&    @@@@@@@@@@@@@@@@@@@@",
"@@@@@@@@@@@@@@     XX&&&&&&&&&%%%%====&&    @@@@@.@@@@@.@@@@@@@@",
"@@@@@@@@@@@@@@@@@    &&&&&&&========  &&  @@@@@@@@@@@@@@@@@@@@@@",
"@@@@@@@@@@@@@@@@@    &&&&&&&========  &&  @@@@@@@@@@@@@@@@@@@@@@",
"@@@@@@.@@@@@@@@@@    &&&&&&&&&&&====&&      @@@@@@@@@@@@@@@@@@@@",
"@@@@@@@@@@@@@@  oooooXX&&&&&&&&&====&&      @@@@@@@@@@@@@@@.@@@@",
"@@@@@@@@@@@@@@  oooooXX&&&&&&&=====&&&%%oo    @@@@@@@@@@@@@@@@@@",
"@@@@@@@@@@@@  oooooooXXXXXXX&&=====&&&%%##    @@@@@@@.@@@@@@@@@@",
"@@@@@@@@@@.@  oooooooXXXXXXX&&&&===&oo##oooo  @@@@@@@@@@.@.@@@@@",
"@@@@@@@@@@@@  ooooo%%&&&&&    &&==&&oo##oooo  @@@@@@@.@@@@@@@@@@",
"@@@@@@.@@@@@  ooooo%%&&&&&    &&&&&&ooooooo#  @@@@@@@@@@@@@@@@@@",
"@@@@@@@@.@@@  ooooooo             ooooooo###  @@@@@@.@@@@@@@@@@@",
"@.@@.@@.@@@@@@  ooooo             oooooo##  @@@@@@@@@@@@@@@@@@@@",
"@@@@@@@@@@@@@@  ooooo  @@@@.@@@@  oooo####  @@@@@@@@@.@@@@@@@@@@",
"@@@@@@@@@@@@@@  ooooo  @@@@@@@@@  oo##    @@@@@@@@@@@@.@@@@@@@@@",
"@@@@@@@@@@@@@@@@    @@@@.@@@@@@@  oo##    @@@@@@.@@@@@@@@@@.@.@@",
".@@@@@@@@@@@@@@@    @@@@@@@@@@@@@@    @@@@@@@@@@@@@@@@@@@@@@@@@@",
"@@@@@@@@@@@@@@@@.@@@@@@@@@@@@@@@@@    @@@@@@@.@@@@@@@@@@@@@@@@@@",
"@.@@@@@@@@@@@@@@@@@@@@@@@@@@@@@@@@@@@@@@@.@@@@@@@@@@@@@@@@@@@@@@",
"@@@@@@@@@@@@@@@@@@@@@@@@@@@@@@@@@@@@@@@@@@@@@@@@@.@@.@@@@@@@@@@@"
};
