/* XPM */
static char *_6adb17597394fb3aee4ec69ed79d807dosMyegSi7kJFDwv[] = {
/* columns rows colors chars-per-pixel */
"64 64 15 1 ",
"  c black",
". c #106617",
"X c #003469",
"o c #AD3713",
"O c #C40007",
"+ c #FA0008",
"@ c #29FF3E",
"# c #E8962A",
"$ c #FF8875",
"% c #F2FC7C",
"& c #007DB8",
"* c #6ECCB1",
"= c #00AEFF",
"- c #FFB4AD",
"; c white",
/* pixels */
"@@@@@@@@@@@@@@.@@@@@@@@@@@@@@@@@@@@@@@@@@@@@@@@@@@@@@.@@@@@@@@@@",
"@@@@@@@@@@@@@@@@@@@@@@@@@@.@@@@@@@@@@@@@@@@@@@@.@@@@@@@@@@@@@@@@",
"@@@@@@@@@@@@@@@.@@@@@@@@@@@@@@@@@@.@@@@@@@@@@@@@@@@@@@@@@@@@@@@@",
"@@@@@@@@@@@@@@@@@@@@@@@@@@@@.@@@.@@@@@@.@@@@@@@@@@@@@@@@@@@@@@@@",
"@@@@@@@@@@@@.@@@@@@@@@@@@@@@@@@@        @@@@@.@@@@@@@@@@@.@@@@@@",
"@@@.@@@@@@@@@@@@@@.@@@@@@@@@@@@@        @@@@@@@@@@@@@@@@@@@@@@@@",
"@@@@@@@@@@@@@@.@@@@@@@@@@@@@@@  ++++++++  @@@@@@@@.@@@@@@@@@@@@@",
"@@@@@@@@@@@@@@@@@@@@@@@@@@@@@@  ++++++++  @@@@@@@@@@@@@@@@@@@@@@",
"@@@@@@@@@@@@@@@@@@@@@@@@@@.@  OO;;;;OO++++  @@@@@@@@@@@@@@@@@@@@",
"@@@@@@@@@@@@@@@@@@@@@@@@@@@@  OO;;;;OO++++  @@@@@@@@.@@@@@@@@@@@",
"@@@@@@@@@@@@@@@@@.@@@@@@    OO;;;;;;OOOO++++  @@@@@@@@@@@@@@@.@@",
"@@@.@@@@@@@@@@@@@@@@@@@@    OO;;;;;;OOOO++++  @@@@@@@@@@@@@@@@@@",
"@@@@@@@@@@@@@@@@@@@@@@  ++++++++++++++OOOO++OO    @@@@@@@@@@@@@@",
"@@@.@@@@@@@@@@@@@@@@@@  ++++++++++++++OOOO++OO    @@@@@@@@@@@@@@",
"@@@@@@@@@@@@@@@@@@@@@.  ++OO          ++++OO++++OO  @@@@@@@.@@@@",
"@@@@@@@@@@@@@@@@@@@@@@  ++OO          ++++OO++++OO  @@@@@@.@@@@@",
"@@@@@@@@@@@@@@@@@@@@@@@@    ;;;;$$;;;;  ++++OOOOOO  @@@@@@@@@@@@",
"@@@@@@@@@@@@@@@@@@@@@@@@    ;;;;$$;;;;  ++++OOOOOO  @@@@@@@@@@@@",
"@@@@@@@@@@@@@@@@@@@@.@@@@@  ;;  $$  ;;;;    OOOOOO  @@@@@@@@@@@@",
"@@@@@@@@@@@@@@@@@@@@@@@@@@  ;;  $$  ;;;;    OOOOOO  @@@@@@@@@@@@",
"@@@@@@@@@@@@@@@@@@.@@.@@  $$----$$  ;;;;$$$$      @@@@@@@@@@@@@@",
"@@@@@@@@@@@@@@@@@@@@@@@@  $$----$$  ;;;;$$$$      @@@@@@@@@@@@@@",
"@@@@@@@@@@@@@@@.@@@@@@  oo--;;----;;;;oo--oo -----  @@@@@@@@@@@@",
"@@@@@@@@@@@@@@@@.@.@@@  oo--;;----;;;;oo---- -----  @@@@@@@@@@@@",
"@@@@@@@@@@@@@@@@@@@@@@  oo$$----oo    oo----o$$$$$  @@@@@@@@@@@@",
"@@@@@@@@@@@@@@@@@@.@@@  oo$$----oo    oo----o$$$$$  .@@@@@.@@@@@",
"@@@@@@@.@@@@@@@@@@@@@@@@    oooo      $$----$$$$  @@@@@@@@@@@@@@",
"@@@@@@@@@@@@@@@@@@@@@@@@    oooooo    $$----$$$$  @@@@@@@@@@@@@@",
"@@@@@@.@@@@@@@@@@@@@@@@@        oo  ------$$oo    @@@@@@@@@@@@@@",
"@@@@@@@@@@@@@@@@@@@@@@@@        oo  ------$$oo    @@@@@@@@@@@@@@",
"@@@@@@@@@@@@@@@.@@@@@@@@.@  oo$$--------oo      @@@@@@@@@@@@@@@@",
"@@@@@@@@@@@@@@@@@@@@@@@@@@  oo$$--------oo      @@@@@@@@@@@@@@@@",
"@@@@@@@@@@@@@@@@@@@@@@@@.@@@    oooooo    OO++++  @@@@@@@@@@@@@@",
"@@@@@.@@@@@@@@@@@@@@@@@@@@.@    oooooo    OO++++  @@@@@@@@@..@@@",
"@@@@@@@@@@@@@@@@@@@@@@        &&OOOO&&&&OO++++++OO  @@@@@@@@@@@@",
"@@@@@@@@@@@@@@@@@@@@@@        &&OOOO&&&&OO++++++OO  @@@@@@@@@@@@",
"@@@@@@@@@@@@@@@@@@@@  ;;;;; &&OOOO&&&&OOOO++++++;;;;  @@@@@@@@@@",
"@@@@@@@@@@@.@@@@@@@@  ;;;;; &&OOOO&&&&OOOOOOO+++;;;;  @@@@@@@@@@",
"@@.@@@@@@@@@@.@@@@  ;;;*;;; OOOOO+&&&&OOOOOOO+;;;;;;;;  @@@@@@@@",
"@@.@@@@@@@@.@@@@@@  ;;;*;;; OOOO++&&&&OOOOO  O;;;*;;;;  @@@@@@@@",
"@@@@@@@@@@@@@@@@@@  ;;;**** OOO+&&==XXOOOOO  O;;;*;;;;  @@@@@@@@",
"@@@@@@@@@@@@@@@@@@  ;;;;*** ++++====XXOOOOOOO ****;;;;  @@@@@@@@",
"@@@@@@@@@@@@@@@@@@@@  ;;  &&====%%%%XX&&&&&XXXX  ;;;  @@@@@@@@.@",
"@@@@@@@@@@@@@@@@@@@@  ;;  &&====%%%%XX&&&&&XXXX  ;;;  @@@@@@@@@@",
"@@@@@@@@@@@@@@@@@@@@@@    &&====%%%%&&&&&&&&&XX     @@@@@@.@@@@@",
"@@@@@@@@@@.@@@@@.@@@@@    &&====%%%%&&&&&&&&&XX     @@@@@@@@@@@@",
"@@@@@@@@@@@@@@@@@@@@@@@@  &&  ========&&&&&&&    @@@@@@@@@@@@@@@",
"@@@@@@@@@@@@@@@@@@@@@@@@  &&  ========&&&&&&&    @@@@@@@@@@@@@@@",
"@@@@@@@@@@@@@@@@@@@@@@      &&====&&&&&&&&&&&    @@@@@@@@@@.@@@@",
"@@@@@@.@@@@@@@@@@@@@@@      &&====&&&&&&&&&XXooooo  @@@@@@@@@@@@",
"@@@@@@@@@@@@@@@@@@@@    oo%%&&&=====&&&&&&&XXooooo  @@@@@@@@@@@@",
"@@@@@@@@@@@@.@@@@@@@    ##%%&&&=====&&XXXXXXXooooooo  @@@@@@@@@@",
"@@@@@@@.@.@@@@@@@@@@  oooo##oo&===&&&&XXXXXXXooooooo  @.@@@@@@@@",
"@@@@@@@@@@@@.@@@@@@@  oooo##oo&&==&&    &&&&&%%ooooo  @@@@@@@@@@",
"@@@@@@@@@@@@@@@@@@@@  #ooooooo&&&&&&    &&&&&%%ooooo  @@@@@.@@@@",
"@@@@@@@@@@@@@.@@@@@@  ###ooooooo             ooooooo  @@@.@@@@@@",
"@@@@@@@@@@@@@@@@@@@@@@  ##oooooo             ooooo  @@@@@@.@@.@@",
"@@@@@@@@@@@@.@@@@@@@@@  ####oooo  @@@@.@@@@  ooooo  @@@@@@@@@@@@",
"@@@@@@@@@@@.@@@@@@@@@@@@    ##oo  @@@@@@@@@  ooooo  @@@@@@@@@@@@",
"@@@@.@.@@@@@@@@@@.@@@@@@    ##oo  @@@@@@@.@@@@    @@@@@@@@@@@@@@",
"@@@@@@@@@@@@@@@@@@@@@@@@@@@@    @@@@@@@@@@@@@@    @@@@@@@@@@@@@@",
"@@@@@@@@@@@@@@@@@@@@.@@@@@@@    @@@@@@@@@@@@@@@@@.@@@@@@@@@@@@@@",
"@@@@@@@@@@@@@@@@@@@@@@@@.@@@@@@@@@@@@@@@@@@@@@@@@@@@@@@@@@@@@@@@",
"@@@@@@@@@@@@@.@@.@@@@@@@@@@@@@@@@@@@@@@@@@@@@@@@@@@@@@@@@@@@@@@@"
};
