/* XPM */
static char *_186133729ec485faef2db4aacbff54eUyNRHcSBdxYhS7HZ[] = {
/* columns rows colors chars-per-pixel */
"64 64 16 1 ",
"  c black",
". c #110908",
"X c #20110F",
"o c #003469",
"O c #AD3713",
"+ c #C40007",
"@ c #FA0008",
"# c #198A22",
"$ c #29FF3E",
"% c #FF8875",
"& c #F2FC7C",
"* c #007DB8",
"= c #6ECCB1",
"- c #00AEFF",
"; c #FCDED9",
": c white",
/* pixels */
"$$$$$$$$$$$$$$$$#$$$$$$$$$$$        $$$$$$$$$$$$$$$$$$$$$$$$$$$$",
"$$$$$$$$$$$$$#$$$$$$$$$$$#$$        #$##$$$$#$$#$$$$$$$$$$$$$$$$",
"$$$$#$$$$$$$$$$$$$$$$$$$    @@@@@@@@    #$$$$#$$$$$$$$$$$$$$$$$$",
"$##$$$$$$$$$$$$$$$$$$$$$    @@@@@@@@    $$$$$$#$$$$$$$$$$$$$$$$$",
"$$$$$#$$$$$$$$$$$$$$$$  ++@@@@@@@@@@@@++  $$#$$$$$$$$$$$$$$$$#$$",
"$$$$$$$$$$$#$$$$$$$$$$  ++@@@@@@@@@@@@++  $$$$$$$$#$#$$$$$$$$$$$",
"$$$$#$#$$$$#$$$$$$$$$$  @@++++++++++++@@  $$$$$$##$$$$$$$$$$$$$#",
"$$$$$$$$$$$$$$$$$$$$$$  @@++++++++++++@@  #$$$$$$$$$$$$#$$$$$$$$",
"$$$$$$$$$$$$$$$$$$#$  @@++++++++++++++++@@  $$$$$$$$$$$$$$$$$$$$",
"$$$$$$$$$$$$$$$#$$$$  @@++++++++++++++++@@  $$$$$$$$$$$$$$$$$#$$",
"$$$$$$$$$$$$$$$$$$  ++++++@@@@@@@@@@@@++++++  #$$$$$#$$$$$$$$$$$",
"#$$$$$$$$$$$$$$$$$  ++++++@@@@@@@@@@@@++++++  $$$$$$$#$$$$$$$$$$",
"$#$$$$$$$$$$$$$$#$  ++++@@@@@@@@@@@@@@@@++++  $$$$$$$$$$$$#$$$$$",
"$$$$$$$$$$$$$$$$$$  ++++@@@@@@@@@@@@@@@@++++  $$$$$$#$$$$$$$$$##",
"$$$$$$$$$$$$$$$$#$    ++@@@@@@@@@@@@@@@@++    $$$$$$$$$$$#$##$$$",
"$$$$$$$$$$$$$$$$$$    ++@@@@@@@@@@@@@@@@++    $$$$$$$$$$$$$$$$#$",
"$$$$$$$$$$$$$$$#$$$$    ++@@@@@@@@@@@@++    $#$$$$$$$$$$$#$$$$$$",
"$$$$#$$$$$$#$$$$$$$$    ++@@@@@@@@@@@@++    $$$$$$$$$$#$$$$$$$$$",
"$$$$$$$$$$$$$$$$$$  ;;                    ;;  $$$#$$$$$$$$$$$$$$",
"$$$$$#$$$$#$#$$$$# .;;                    ;;  $$$#$$$$$$$$$$$$$$",
"$$$$$$$$$$$$$$$$$$ X%%OO                OO%%  ##$$$$$$$$$$$$$$$$",
"$#$$$$$$$$$$$$$#$$ .%%OO                OO%%  $#$$$#$$$$$#$$$$$$",
"$#$$$$$$$$$$$#$#$$$$                        $$$$$$$$$$$$$$$#$$$$",
"$$$$$$$$$$$$$$$$$$$$                        $$$$$$$$$$$$$$$$$$$$",
"$$$$$$$$$$$$$$$$$$$$$$  OO            OO  $$$$$$$$$$$$$$$$$$$$$$",
"$$#$$$$$$$$$$$$$$$##$$  OO            OO  $$$$$$$$$$$$$$$$$$$$$$",
"$$$$$#$$$$$#$$$$$$$$$$$$  %%;;;;;;;;%%  $$$$$$$$$$#$$$$$$$$$$#$$",
"$$$#$$$$$$$$$$$$$$$$$$#$  %%;;;;;;;;%%  $$$$$$$$$$#$$$$$$$$$$$$$",
"$$$$#$$$$$$$$$$$$#$$$#        OOOO        $$$$#$$$$$$$$$$$$$$$$$",
"$$#$#$$$$$$$$#$$$$$#$$        OOOO        $$$$$$$$$$$$$$$$$$$$$$",
"$$$$$$$$$$$$$$$$$#$$    ++++**++++**++++    $$$$$$$$$$$$$$$$$$$$",
"$$$$$$$$$$$$$$$$$$$$    ++++**++++**++++    $$$$$$$$$$$$$$$$#$$#",
"##$$$$$$$$$$$$$$#$  ++@@++oo--****--oo++@@++  $$$$$$$#$$$$$$$$$$",
"$$$$$$$$$$$$$#$$$$  ++@@++oo--****--oo++@@++  $$$$$$$$$$$$$#$$$$",
"$$#$$$$$$$$$$$$$  ++@@++oo------------oo++@@++  $$$$$$$$$$$$$$$#",
"$$$$$$$$$$#$$$$$  ++@@++oo------------oo++@@++  $$$$$#$$$$$$$#$#",
"$$$$$$$$$$$$$#$$  ==::  ----------------  ::==  $$$$$$$$$$$$$$$$",
"$$$$$##$#$$$#$$$  ==::  ----------------  ::==  $$#$$$$$$$$$$$$#",
"$$$$$$$$$$$$$$$$  ::::**----------------**::::  $$$$#$$$$$$$$$$$",
"$$$$$$$#$$$$$$#$  ::::**----------------**::::  $$$$$$$$$$$$$$$$",
"$$#$$$$$$$$$$$$$  ::==********----********==::  $$$$$$$$$$#$$$$$",
"$$$$$$$$$$$$$$$$  ::==********----********==::  $$$$$$$$$$#$$$$$",
"$$$$$$$$$$$$$$$$    ::oo**--**----**--**oo::    $$$$$$$#$$$$$$$$",
"$$$$$$$$$$$$$$$$    ::oo**--**----**--**oo::    $#$$$$$$$$$#$$$$",
"$$$$$$$$##$$$$$$$$    oooo**--------**oooo    $$$$$$$$$$$#$$$$$$",
"$$$$$$$$$$#$$$$$$$    oooo**--------**oooo    $#$$$$$$$$$$$$$$$$",
"$$$$$$$$$$$$$$$$$#$$$$  ****oooooooo****  $$$$$$$$$#$$$#$$$$$#$$",
"$$$$$$$$$$$$#$$$$$$#$#  ****oooooooo****  $$$$##$$$$$$$#$$$$$$$$",
"$$$$$$$$$$$$$$$$$$$$$$  **--**oooo**--**  $$$$$$$$$$$$$$$$$$$$#$",
"$$$$$$#$$$$$$$$$$$$$$$  **--**oooo**--**  $$$$#$$$$$$$$$$$$$$$$$",
"$$$$$$$$$$$$$$$$$$$$$$  ----**    **----  $$$$$$$$$#$$$$$$$$$$#$",
"$$$$$$$$$$#$$$$$$$$#$$  ----**    **----  $$$$$$#$$$$$$$$$$$$#$$",
"$$$$$$$$$$$$$$$$$$$$  &&OO****    ****OO&&  $$$$$$$$$$$$$$$$$$$$",
"$$$$$$$$$$$$$$$$$$$$  &&OO****    ****OO&&  $$$$$$$$$$$$$$#$$$#$",
"$$#$$$$$$$$$#$$$$$$$  OOOOOOOO    OOOOOOOO  $$$$$$$$$$$$$#$$$$$$",
"$$$$$$$$$$$$$$$$$$$$  OOOOOOOO    OOOOOOOO  $$$$$$$$$$$$$$$$$$$$",
"$$$$$$$$$$$$$$$#$#$$          $$$#          $$$$$$$$$$$$$$$$$$$$",
"$$$$$$$$$#$$$$$$$$$$          $$$$          $$$$$$$$$$$$$$$$$$$$",
"$$$$$$$$$$$$$$$$$$$$$$$$$#$$$$$$$$$$$$$$$$$$$$$$$$$$$$$#$$$$$$$$",
"#$$$$$$$$$$$#$$$$$$$$$$$$$$$$$$$$#$#$$$$$$$$$$$$$$$$$$$#$$$$$$$#",
"#$$$$$$$$$$$#$$$$$#$$$$$$$$$$$$$$$$$$$$$$$$$$$$$$$$$$$$$$#$#$$$$",
"$$$$$$$$$$$$$$#$$$$$$$$$$$$$$##$$$$$$$$$$$$$$$$#$$$$$$$$$$#$$$$$",
"#$$$$$$$$$$$$$$$$$$$$$$$$$$$$$$$$$$$#$$$$$$$$#$$$#$$$$$$$$$##$$$",
"$$$$$$$$$#$$$$$#$#$$$$$#$$$$$$$$$#$$$$##$$$#$$$#$$$#$$$#$$$$$$$#"
};
